REM DIRINDEX 1\2,1\3
REM DIRNAME folder01,folder02,folder03
TITLE ""
FILE "Disc2Track09.mp3" MP3
  TRACK 01 AUDIO
    TITLE "0:"
    INDEX 01 00:00:00
  TRACK 02 AUDIO
    TITLE "3:cjc116_2796"
    INDEX 01 00:00:11
  TRACK 03 AUDIO
    TITLE "0:"
    INDEX 01 00:02:06
  TRACK 04 AUDIO
    TITLE "3:cjc116_2797"
    INDEX 01 00:02:51
  TRACK 05 AUDIO
    TITLE "0:"
    INDEX 01 00:04:19
  TRACK 06 AUDIO
    TITLE "2:cjc116_2798"
    INDEX 01 00:04:62
  TRACK 07 AUDIO
    TITLE "0:"
    INDEX 01 00:06:14
  TRACK 08 AUDIO
    TITLE "2:cjc116_2799"
    INDEX 01 00:06:59
  TRACK 09 AUDIO
    TITLE "0:"
    INDEX 01 00:08:32
  TRACK 10 AUDIO
    TITLE "2:cjc116_2800"
    INDEX 01 00:08:62
  TRACK 11 AUDIO
    TITLE "0:"
    INDEX 01 00:10:31
  TRACK 12 AUDIO
    TITLE "2:cjc116_2801"
    INDEX 01 00:10:70
  TRACK 13 AUDIO
    TITLE "0:"
    INDEX 01 00:12:34
  TRACK 14 AUDIO
    TITLE "2:cjc116_2802"
    INDEX 01 00:12:71
  TRACK 15 AUDIO
    TITLE "0:"
    INDEX 01 00:14:23
  TRACK 16 AUDIO
    TITLE "2:cjc116_2803"
    INDEX 01 00:14:60
  TRACK 17 AUDIO
    TITLE "0:"
    INDEX 01 00:16:30
  TRACK 18 AUDIO
    TITLE "2:cjc116_2804"
    INDEX 01 00:16:71
  TRACK 19 AUDIO
    TITLE "0:"
    INDEX 01 00:18:46
  TRACK 20 AUDIO
    TITLE "2:cjc116_2805"
    INDEX 01 00:19:09
  TRACK 21 AUDIO
    TITLE "0:"
    INDEX 01 00:20:51
  TRACK 22 AUDIO
    TITLE "2:cjc116_2806"
    INDEX 01 00:21:15
  TRACK 23 AUDIO
    TITLE "0:"
    INDEX 01 00:22:09
  TRACK 24 AUDIO
    TITLE "2:cjc116_2807"
    INDEX 01 00:22:46
  TRACK 25 AUDIO
    TITLE "0:"
    INDEX 01 00:23:63
  TRACK 26 AUDIO
    TITLE "2:cjc116_2808"
    INDEX 01 00:24:29
  TRACK 27 AUDIO
    TITLE "0:"
    INDEX 01 00:25:15
  TRACK 28 AUDIO
    TITLE "2:cjc116_2809"
    INDEX 01 00:25:66
  TRACK 29 AUDIO
    TITLE "0:"
    INDEX 01 00:26:52
  TRACK 30 AUDIO
    TITLE "2:cjc116_2810"
    INDEX 01 00:27:16
  TRACK 31 AUDIO
    TITLE "0:"
    INDEX 01 00:28:57
  TRACK 32 AUDIO
    TITLE "2:cjc116_2811"
    INDEX 01 00:29:33
  TRACK 33 AUDIO
    TITLE "0:"
    INDEX 01 00:30:61
  TRACK 34 AUDIO
    TITLE "2:cjc116_2812"
    INDEX 01 00:31:14
  TRACK 35 AUDIO
    TITLE "0:"
    INDEX 01 00:32:41
  TRACK 36 AUDIO
    TITLE "2:cjc116_2813"
    INDEX 01 00:33:07
  TRACK 37 AUDIO
    TITLE "0:"
    INDEX 01 00:35:33
  TRACK 38 AUDIO
    TITLE "2:cjc116_2814"
    INDEX 01 00:35:72
  TRACK 39 AUDIO
    TITLE "0:"
    INDEX 01 00:37:38
  TRACK 40 AUDIO
    TITLE "2:cjc116_2815"
    INDEX 01 00:38:06
  TRACK 41 AUDIO
    TITLE "0:"
    INDEX 01 00:39:37
  TRACK 42 AUDIO
    TITLE "2:cjc116_2816"
    INDEX 01 00:39:72
  TRACK 43 AUDIO
    TITLE "0:"
    INDEX 01 00:41:18
  TRACK 44 AUDIO
    TITLE "2:cjc116_2817"
    INDEX 01 00:41:65
  TRACK 45 AUDIO
    TITLE "0:"
    INDEX 01 00:43:27
  TRACK 46 AUDIO
    TITLE "2:cjc116_2818"
    INDEX 01 00:43:66
  TRACK 47 AUDIO
    TITLE "0:"
    INDEX 01 00:44:67
  TRACK 48 AUDIO
    TITLE "2:cjc116_2819"
    INDEX 01 00:45:37
  TRACK 49 AUDIO
    TITLE "0:"
    INDEX 01 00:46:54
  TRACK 50 AUDIO
    TITLE "2:cjc116_2820"
    INDEX 01 00:47:11
  TRACK 51 AUDIO
    TITLE "0:"
    INDEX 01 00:48:40
  TRACK 52 AUDIO
    TITLE "2:cjc116_2821"
    INDEX 01 00:49:14
  TRACK 53 AUDIO
    TITLE "0:"
    INDEX 01 00:50:60
  TRACK 54 AUDIO
    TITLE "2:cjc116_2822"
    INDEX 01 00:51:24
  TRACK 55 AUDIO
    TITLE "0:"
    INDEX 01 00:52:59
  TRACK 56 AUDIO
    TITLE "2:cjc116_2823"
    INDEX 01 00:53:23
  TRACK 57 AUDIO
    TITLE "0:"
    INDEX 01 00:54:74
  TRACK 58 AUDIO
    TITLE "2:cjc116_2824"
    INDEX 01 00:55:38
  TRACK 59 AUDIO
    TITLE "0:"
    INDEX 01 00:58:03
  TRACK 60 AUDIO
    TITLE "2:cjc116_2825"
    INDEX 01 00:58:46
  TRACK 61 AUDIO
    TITLE "0:"
    INDEX 01 01:01:03
  TRACK 62 AUDIO
    TITLE "2:cjc116_2826"
    INDEX 01 01:01:42
  TRACK 63 AUDIO
    TITLE "0:"
    INDEX 01 01:04:05
  TRACK 64 AUDIO
    TITLE "2:cjc116_2827"
    INDEX 01 01:04:47
  TRACK 65 AUDIO
    TITLE "0:"
    INDEX 01 01:06:42
  TRACK 66 AUDIO
    TITLE "2:cjc116_2828"
    INDEX 01 01:07:06
  TRACK 67 AUDIO
    TITLE "0:"
    INDEX 01 01:08:56
  TRACK 68 AUDIO
    TITLE "2:cjc116_2829"
    INDEX 01 01:09:22
  TRACK 69 AUDIO
    TITLE "0:"
    INDEX 01 01:10:61
  TRACK 70 AUDIO
    TITLE "2:cjc116_2830"
    INDEX 01 01:11:35
  TRACK 71 AUDIO
    TITLE "0:"
    INDEX 01 01:12:56
  TRACK 72 AUDIO
    TITLE "2:cjc116_2831"
    INDEX 01 01:13:26
  TRACK 73 AUDIO
    TITLE "0:"
    INDEX 01 01:14:57
  TRACK 74 AUDIO
    TITLE "2:cjc116_2832"
    INDEX 01 01:15:29
  TRACK 75 AUDIO
    TITLE "0:"
    INDEX 01 01:16:60
  TRACK 76 AUDIO
    TITLE "2:cjc116_2833"
    INDEX 01 01:17:26
  TRACK 77 AUDIO
    TITLE "0:"
    INDEX 01 01:19:13
  TRACK 78 AUDIO
    TITLE "2:cjc116_2834"
    INDEX 01 01:19:56
  TRACK 79 AUDIO
    TITLE "0:"
    INDEX 01 01:20:69
  TRACK 80 AUDIO
    TITLE "2:cjc116_2835"
    INDEX 01 01:21:39
  TRACK 81 AUDIO
    TITLE "0:"
    INDEX 01 01:23:44
  TRACK 82 AUDIO
    TITLE "2:cjc116_2836"
    INDEX 01 01:24:08
  TRACK 83 AUDIO
    TITLE "0:"
    INDEX 01 01:25:27
  TRACK 84 AUDIO
    TITLE "2:cjc116_2837"
    INDEX 01 01:25:74
  TRACK 85 AUDIO
    TITLE "0:"
    INDEX 01 01:27:20
  TRACK 86 AUDIO
    TITLE "2:cjc116_2838"
    INDEX 01 01:27:59
  TRACK 87 AUDIO
    TITLE "0:"
    INDEX 01 01:29:23
  TRACK 88 AUDIO
    TITLE "2:cjc116_2839"
    INDEX 01 01:29:66
  TRACK 89 AUDIO
    TITLE "0:"
    INDEX 01 01:31:59
  TRACK 90 AUDIO
    TITLE "2:cjc116_2840"
    INDEX 01 01:32:19
  TRACK 91 AUDIO
    TITLE "0:"
    INDEX 01 01:33:46
  TRACK 92 AUDIO
    TITLE "2:cjc116_2841"
    INDEX 01 01:34:10
  TRACK 93 AUDIO
    TITLE "0:"
    INDEX 01 01:35:33
  TRACK 94 AUDIO
    TITLE "2:cjc116_2842"
    INDEX 01 01:36:00
  TRACK 95 AUDIO
    TITLE "0:"
    INDEX 01 01:37:24
  TRACK 96 AUDIO
    TITLE "2:cjc116_2843"
    INDEX 01 01:37:64
  TRACK 97 AUDIO
    TITLE "0:"
    INDEX 01 01:39:37
  TRACK 98 AUDIO
    TITLE "2:cjc116_2844"
    INDEX 01 01:40:03
  TRACK 99 AUDIO
    TITLE "0:"
    INDEX 01 01:41:42
  TRACK 100 AUDIO
    TITLE "2:cjc116_2845"
    INDEX 01 01:42:12
  TRACK 101 AUDIO
    TITLE "0:"
    INDEX 01 01:43:51
  TRACK 102 AUDIO
    TITLE "2:cjc116_2846"
    INDEX 01 01:44:17
  TRACK 103 AUDIO
    TITLE "0:"
    INDEX 01 01:45:67
  TRACK 104 AUDIO
    TITLE "2:cjc116_2847"
    INDEX 01 01:46:31
  TRACK 105 AUDIO
    TITLE "0:"
    INDEX 01 01:48:03
  TRACK 106 AUDIO
    TITLE "2:cjc116_2848"
    INDEX 01 01:48:42
  TRACK 107 AUDIO
    TITLE "0:"
    INDEX 01 01:49:73
  TRACK 108 AUDIO
    TITLE "2:cjc116_2849"
    INDEX 01 01:50:39
  TRACK 109 AUDIO
    TITLE "0:"
    INDEX 01 01:51:74
  TRACK 110 AUDIO
    TITLE "2:cjc116_2850"
    INDEX 01 01:52:34
  TRACK 111 AUDIO
    TITLE "0:"
    INDEX 01 01:53:67
  TRACK 112 AUDIO
    TITLE "2:cjc116_2851"
    INDEX 01 01:54:37
  TRACK 113 AUDIO
    TITLE "0:"
    INDEX 01 01:55:48
  TRACK 114 AUDIO
    TITLE "2:cjc116_2852"
    INDEX 01 01:56:12
  TRACK 115 AUDIO
    TITLE "0:"
    INDEX 01 01:57:66
  TRACK 116 AUDIO
    TITLE "2:cjc116_2853"
    INDEX 01 01:58:32
  TRACK 117 AUDIO
    TITLE "0:"
    INDEX 01 02:00:27
  TRACK 118 AUDIO
    TITLE "2:cjc116_2854"
    INDEX 01 02:00:59
  TRACK 119 AUDIO
    TITLE "0:"
    INDEX 01 02:02:44
  TRACK 120 AUDIO
    TITLE "2:cjc116_2855"
    INDEX 01 02:03:08
  TRACK 121 AUDIO
    TITLE "0:"
    INDEX 01 02:04:37
  TRACK 122 AUDIO
    TITLE "2:cjc116_2856"
    INDEX 01 02:05:01
  TRACK 123 AUDIO
    TITLE "0:"
    INDEX 01 02:06:30
  TRACK 124 AUDIO
    TITLE "2:cjc116_2857"
    INDEX 01 02:07:04
  TRACK 125 AUDIO
    TITLE "0:"
    INDEX 01 02:08:29
  TRACK 126 AUDIO
    TITLE "2:cjc116_2858"
    INDEX 01 02:08:70
  TRACK 127 AUDIO
    TITLE "0:"
    INDEX 01 02:10:51
  TRACK 128 AUDIO
    TITLE "2:cjc116_2859"
    INDEX 01 02:11:15
  TRACK 129 AUDIO
    TITLE "0:"
    INDEX 01 02:13:07
  TRACK 130 AUDIO
    TITLE "2:cjc116_2860"
    INDEX 01 02:13:46
  TRACK 131 AUDIO
    TITLE "0:"
    INDEX 01 02:15:05
  TRACK 132 AUDIO
    TITLE "2:cjc116_2861"
    INDEX 01 02:15:56
  TRACK 133 AUDIO
    TITLE "0:"
    INDEX 01 02:17:16
  TRACK 134 AUDIO
    TITLE "2:cjc116_2862"
    INDEX 01 02:17:53
  TRACK 135 AUDIO
    TITLE "0:"
    INDEX 01 02:19:37
  TRACK 136 AUDIO
    TITLE "2:cjc116_2863"
    INDEX 01 02:20:09
  TRACK 137 AUDIO
    TITLE "0:"
    INDEX 01 02:21:57
  TRACK 138 AUDIO
    TITLE "2:cjc116_2864"
    INDEX 01 02:22:21
  TRACK 139 AUDIO
    TITLE "0:"
    INDEX 01 02:24:18
  TRACK 140 AUDIO
    TITLE "2:cjc116_2865"
    INDEX 01 02:24:55
  TRACK 141 AUDIO
    TITLE "0:"
    INDEX 01 02:26:39
  TRACK 142 AUDIO
    TITLE "2:cjc116_2866"
    INDEX 01 02:27:07
  TRACK 143 AUDIO
    TITLE "0:"
    INDEX 01 02:28:73
  TRACK 144 AUDIO
    TITLE "2:cjc116_2867"
    INDEX 01 02:29:39
  TRACK 145 AUDIO
    TITLE "0:"
    INDEX 01 02:31:22
  TRACK 146 AUDIO
    TITLE "2:cjc116_2868"
    INDEX 01 02:31:59
  TRACK 147 AUDIO
    TITLE "0:"
    INDEX 01 02:33:29
  TRACK 148 AUDIO
    TITLE "2:cjc116_2869"
    INDEX 01 02:33:74
  TRACK 149 AUDIO
    TITLE "0:"
    INDEX 01 02:36:47
  TRACK 150 AUDIO
    TITLE "2:cjc116_2870"
    INDEX 01 02:37:13
  TRACK 151 AUDIO
    TITLE "0:"
    INDEX 01 02:38:40
  TRACK 152 AUDIO
    TITLE "2:cjc116_2871"
    INDEX 01 02:39:10
  TRACK 153 AUDIO
    TITLE "0:"
    INDEX 01 02:40:56
  TRACK 154 AUDIO
    TITLE "2:cjc116_2872"
    INDEX 01 02:41:17
  TRACK 155 AUDIO
    TITLE "0:"
    INDEX 01 02:42:40
  TRACK 156 AUDIO
    TITLE "2:cjc116_2873"
    INDEX 01 02:43:12
  TRACK 157 AUDIO
    TITLE "0:"
    INDEX 01 02:44:64
  TRACK 158 AUDIO
    TITLE "2:cjc116_2874"
    INDEX 01 02:45:28
  TRACK 159 AUDIO
    TITLE "0:"
    INDEX 01 02:47:39
  TRACK 160 AUDIO
    TITLE "2:cjc116_2875"
    INDEX 01 02:48:11
  TRACK 161 AUDIO
    TITLE "0:"
    INDEX 01 02:49:57
  TRACK 162 AUDIO
    TITLE "2:cjc116_2876"
    INDEX 01 02:50:18
  TRACK 163 AUDIO
    TITLE "0:"
    INDEX 01 02:51:44
  TRACK 164 AUDIO
    TITLE "2:cjc116_2877"
    INDEX 01 02:52:05
  TRACK 165 AUDIO
    TITLE "0:"
    INDEX 01 02:53:24
  TRACK 166 AUDIO
    TITLE "3:cjc116_2878"
    INDEX 01 02:55:01
  TRACK 167 AUDIO
    TITLE "0:"
    INDEX 01 02:56:08
  TRACK 168 AUDIO
    TITLE "2:cjc116_2879"
    INDEX 01 02:56:53
  TRACK 169 AUDIO
    TITLE "0:"
    INDEX 01 02:58:25
  TRACK 170 AUDIO
    TITLE "2:cjc116_2880"
    INDEX 01 02:58:72
  TRACK 171 AUDIO
    TITLE "0:"
    INDEX 01 03:01:02
  TRACK 172 AUDIO
    TITLE "2:cjc116_2881"
    INDEX 01 03:01:41
  TRACK 173 AUDIO
    TITLE "0:"
    INDEX 01 03:03:18
  TRACK 174 AUDIO
    TITLE "2:cjc116_2882"
    INDEX 01 03:03:59
  TRACK 175 AUDIO
    TITLE "0:"
    INDEX 01 03:04:72
  TRACK 176 AUDIO
    TITLE "2:cjc116_2883"
    INDEX 01 03:05:33
  TRACK 177 AUDIO
    TITLE "0:"
    INDEX 01 03:07:02
  TRACK 178 AUDIO
    TITLE "2:cjc116_2884"
    INDEX 01 03:07:47
  TRACK 179 AUDIO
    TITLE "0:"
    INDEX 01 03:09:01
  TRACK 180 AUDIO
    TITLE "2:cjc116_2885"
    INDEX 01 03:09:38
  TRACK 181 AUDIO
    TITLE "0:"
    INDEX 01 03:10:65
  TRACK 182 AUDIO
    TITLE "2:cjc116_2886"
    INDEX 01 03:11:35
  TRACK 183 AUDIO
    TITLE "0:"
    INDEX 01 03:12:54
  TRACK 184 AUDIO
    TITLE "2:cjc116_2887"
    INDEX 01 03:13:15
  TRACK 185 AUDIO
    TITLE "0:"
    INDEX 01 03:14:49
  TRACK 186 AUDIO
    TITLE "2:cjc116_2888"
    INDEX 01 03:15:14
  TRACK 187 AUDIO
    TITLE "0:"
    INDEX 01 03:16:56
  TRACK 188 AUDIO
    TITLE "2:cjc116_2889"
    INDEX 01 03:17:18
  TRACK 189 AUDIO
    TITLE "0:"
    INDEX 01 03:18:69
  TRACK 190 AUDIO
    TITLE "2:cjc116_2890"
    INDEX 01 03:19:37
  TRACK 191 AUDIO
    TITLE "0:"
    INDEX 01 03:20:72
  TRACK 192 AUDIO
    TITLE "2:cjc116_2891"
    INDEX 01 03:21:34
  TRACK 193 AUDIO
    TITLE "0:"
    INDEX 01 03:22:72
  TRACK 194 AUDIO
    TITLE "2:cjc116_2892"
    INDEX 01 03:23:37
  TRACK 195 AUDIO
    TITLE "0:"
    INDEX 01 03:25:14
  TRACK 196 AUDIO
    TITLE "2:cjc116_2893"
    INDEX 01 03:25:45
  TRACK 197 AUDIO
    TITLE "0:"
    INDEX 01 03:27:30
  TRACK 198 AUDIO
    TITLE "2:cjc116_2894"
    INDEX 01 03:27:72
  TRACK 199 AUDIO
    TITLE "0:"
    INDEX 01 03:29:69
  TRACK 200 AUDIO
    TITLE "2:cjc116_2895"
    INDEX 01 03:30:31
  TRACK 201 AUDIO
    TITLE "0:"
    INDEX 01 03:32:14
  TRACK 202 AUDIO
    TITLE "2:cjc116_2896"
    INDEX 01 03:32:57
  TRACK 203 AUDIO
    TITLE "0:"
    INDEX 01 03:34:05
  TRACK 204 AUDIO
    TITLE "2:cjc116_2897"
    INDEX 01 03:34:44
  TRACK 205 AUDIO
    TITLE "0:"
    INDEX 01 03:36:00
  TRACK 206 AUDIO
    TITLE "2:cjc116_2898"
    INDEX 01 03:36:49
  TRACK 207 AUDIO
    TITLE "0:"
    INDEX 01 03:37:50
  TRACK 208 AUDIO
    TITLE "2:cjc116_2899"
    INDEX 01 03:38:11
  TRACK 209 AUDIO
    TITLE "0:"
    INDEX 01 03:39:20
  TRACK 210 AUDIO
    TITLE "2:cjc116_2900"
    INDEX 01 03:39:69
  TRACK 211 AUDIO
    TITLE "0:"
    INDEX 01 03:41:33
  TRACK 212 AUDIO
    TITLE "2:cjc116_2901"
    INDEX 01 03:42:01
  TRACK 213 AUDIO
    TITLE "0:"
    INDEX 01 03:43:18
  TRACK 214 AUDIO
    TITLE "2:cjc116_2902"
    INDEX 01 03:43:65
  TRACK 215 AUDIO
    TITLE "0:"
    INDEX 01 03:45:26
  TRACK 216 AUDIO
    TITLE "2:cjc116_2903"
    INDEX 01 03:45:66
  TRACK 217 AUDIO
    TITLE "0:"
    INDEX 01 03:46:65
  TRACK 218 AUDIO
    TITLE "2:cjc116_2904"
    INDEX 01 03:47:31
  TRACK 219 AUDIO
    TITLE "0:"
    INDEX 01 03:48:46
  TRACK 220 AUDIO
    TITLE "2:cjc116_2905"
    INDEX 01 03:49:09
  TRACK 221 AUDIO
    TITLE "0:"
    INDEX 01 03:50:61
  TRACK 222 AUDIO
    TITLE "2:cjc116_2906"
    INDEX 01 03:51:37
  TRACK 223 AUDIO
    TITLE "0:"
    INDEX 01 03:52:70
  TRACK 224 AUDIO
    TITLE "2:cjc116_2907"
    INDEX 01 03:53:34
  TRACK 225 AUDIO
    TITLE "0:"
    INDEX 01 03:55:27
  TRACK 226 AUDIO
    TITLE "2:cjc116_2908"
    INDEX 01 03:55:72
  TRACK 227 AUDIO
    TITLE "0:"
    INDEX 01 03:57:43
  TRACK 228 AUDIO
    TITLE "2:cjc116_2909"
    INDEX 01 03:58:07
  TRACK 229 AUDIO
    TITLE "0:"
    INDEX 01 04:00:00
  TRACK 230 AUDIO
    TITLE "2:cjc116_2910"
    INDEX 01 04:00:44
  TRACK 231 AUDIO
    TITLE "0:"
    INDEX 01 04:02:46
  TRACK 232 AUDIO
    TITLE "2:cjc116_2911"
    INDEX 01 04:03:01
  TRACK 233 AUDIO
    TITLE "0:"
    INDEX 01 04:04:08
  TRACK 234 AUDIO
    TITLE "2:cjc116_2912"
    INDEX 01 04:04:51
  TRACK 235 AUDIO
    TITLE "0:"
    INDEX 01 04:05:60
  TRACK 236 AUDIO
    TITLE "2:cjc116_2913"
    INDEX 01 04:06:25
  TRACK 237 AUDIO
    TITLE "0:"
    INDEX 01 04:07:73
  TRACK 238 AUDIO
    TITLE "2:cjc116_2914"
    INDEX 01 04:08:35
  TRACK 239 AUDIO
    TITLE "0:"
    INDEX 01 04:10:46
  TRACK 240 AUDIO
    TITLE "2:cjc116_2915"
    INDEX 01 04:11:10
  TRACK 241 AUDIO
    TITLE "0:"
    INDEX 01 04:12:57
  TRACK 242 AUDIO
    TITLE "2:cjc116_2916"
    INDEX 01 04:13:19
  TRACK 243 AUDIO
    TITLE "0:"
    INDEX 01 04:14:69
  TRACK 244 AUDIO
    TITLE "2:cjc116_2917"
    INDEX 01 04:15:31
  TRACK 245 AUDIO
    TITLE "0:"
    INDEX 01 04:16:60
  TRACK 246 AUDIO
    TITLE "2:cjc116_2918"
    INDEX 01 04:17:24
  TRACK 247 AUDIO
    TITLE "0:"
    INDEX 01 04:18:45
  TRACK 248 AUDIO
    TITLE "2:cjc116_2919"
    INDEX 01 04:19:10
  TRACK 249 AUDIO
    TITLE "0:"
    INDEX 01 04:20:52
  TRACK 250 AUDIO
    TITLE "2:cjc116_2920"
    INDEX 01 04:21:10
  TRACK 251 AUDIO
    TITLE "0:"
    INDEX 01 04:22:24
  TRACK 252 AUDIO
    TITLE "2:cjc116_2921"
    INDEX 01 04:22:65
  TRACK 253 AUDIO
    TITLE "0:"
    INDEX 01 04:24:07
  TRACK 254 AUDIO
    TITLE "2:cjc116_2922"
    INDEX 01 04:24:52
  TRACK 255 AUDIO
    TITLE "0:"
    INDEX 01 04:26:08
  TRACK 256 AUDIO
    TITLE "2:cjc116_2923"
    INDEX 01 04:26:47
  TRACK 257 AUDIO
    TITLE "0:"
    INDEX 01 04:28:46
  TRACK 258 AUDIO
    TITLE "2:cjc116_2924"
    INDEX 01 04:29:24
  TRACK 259 AUDIO
    TITLE "0:"
    INDEX 01 04:31:17
  TRACK 260 AUDIO
    TITLE "2:cjc116_2925"
    INDEX 01 04:31:60
  TRACK 261 AUDIO
    TITLE "0:"
    INDEX 01 04:33:65
  TRACK 262 AUDIO
    TITLE "2:cjc116_2926"
    INDEX 01 04:34:23
  TRACK 263 AUDIO
    TITLE "0:"
    INDEX 01 04:37:04
